<svg width="16" height="16" viewBox="0 0 16 16" fill="none" xmlns="http://www.w3.org/2000/svg">
<g clip-path="url(#clip0_665_32)">
<path d="M8 10C7.447 10 7 9.552 7 9V8C7 7.448 7.447 7 8 7C8.552 7 9 6.551 9 6C9 5.449 8.552 5 8 5C7.448 5 7 5.449 7 6C7 6.552 6.553 7 6 7C5.447 7 5 6.552 5 6C5 4.346 6.346 3 8 3C9.654 3 11 4.346 11 6C11 7.304 10.164 8.416 9 8.829V9C9 9.552 8.553 10 8 10Z" fill="#243142"/>
<path d="M8 13C8.55228 13 9 12.5523 9 12C9 11.4477 8.55228 11 8 11C7.44772 11 7 11.4477 7 12C7 12.5523 7.44772 13 8 13Z" fill="#243142"/>
<path fill-rule="evenodd" clip-rule="evenodd" d="M0 8C0 12.411 3.589 16 8 16C12.411 16 16 12.411 16 8C16 3.589 12.411 0 8 0C3.589 0 0 3.589 0 8ZM2 8C2 4.691 4.691 2 8 2C11.309 2 14 4.691 14 8C14 11.309 11.309 14 8 14C4.691 14 2 11.309 2 8Z" fill="#243142"/>
</g>
<defs>
<clipPath id="clip0_665_32">
<rect width="16" height="16" fill="white"/>
</clipPath>
</defs>
</svg>
