<svg width="16" height="16" viewBox="0 0 16 16" fill="none" xmlns="http://www.w3.org/2000/svg">
<g clip-path="url(#clip0_665_28)">
<path d="M13.992 15.0343C14.01 15.5743 14.454 16.0003 14.99 16.0003C15.002 16.0003 15.014 16.0003 15.025 15.9993C15.577 15.9813 16.01 15.5193 15.99 14.9663C15.716 6.85327 9.14599 0.283274 1.03299 0.0102735C0.499993 -0.0297265 0.0189931 0.423274 -6.88893e-06 0.975274C-0.0190069 1.52727 0.412993 1.98927 0.964993 2.00827C8.02999 2.24727 13.753 7.96827 13.992 15.0343Z" fill="#243142"/>
<path d="M9.98601 16.0003C9.45801 16.0003 9.01601 15.5863 8.98801 15.0523C8.76201 10.6953 5.30501 7.23827 0.948008 7.01227C0.396008 6.98227 -0.0269916 6.51327 0.00100839 5.96127C0.0300084 5.40927 0.498008 4.98327 1.05201 5.01427C6.43601 5.29427 10.706 9.56527 10.987 14.9493C11.015 15.5013 10.591 15.9703 10.04 16.0003H9.98601Z" fill="#243142"/>
<path d="M2.5 16.0003C3.88071 16.0003 5 14.881 5 13.5003C5 12.1196 3.88071 11.0003 2.5 11.0003C1.11929 11.0003 0 12.1196 0 13.5003C0 14.881 1.11929 16.0003 2.5 16.0003Z" fill="#243142"/>
</g>
<defs>
<clipPath id="clip0_665_28">
<rect width="16" height="16" fill="white"/>
</clipPath>
</defs>
</svg>
