<svg xmlns="http://www.w3.org/2000/svg" xmlns:xlink="http://www.w3.org/1999/xlink" viewBox="0 0 245 282"><defs><style>.a{fill:url(#a);}</style><linearGradient id="a" x1="-375.34" y1="640.67" x2="-374.91" y2="639.97" gradientTransform="matrix(245, 0, 0, -282, 91987.99, 180686)" gradientUnits="userSpaceOnUse"><stop offset="0" stop-color="#5a94e6"/><stop offset="1" stop-color="#7bc3db"/></linearGradient></defs><title>logo</title><path class="a" d="M176.88,64.69a34.55,34.55,0,0,1,3.57,3.38V57.59l7.12-7.12v17.2l-4.16,4.16a32.92,32.92,0,0,1,1.5,34.44H170.66a21.66,21.66,0,0,0-25-35,5.65,5.65,0,0,1-7.63-2.15,37.33,37.33,0,1,0-64.74,37.17H60.7a48.67,48.67,0,0,1,33.8-66A11.15,11.15,0,0,1,94,37a11,11,0,0,1,10-11V0h3V26.18A11,11,0,0,1,116,37a11.2,11.2,0,0,1-.42,3A48.91,48.91,0,0,1,145.1,59.15a33,33,0,0,1,29.76,4l2-2ZM130,190.21c17.32,1,30,5.51,30,13.79,0,9.44-16.47,14-37.5,14S85,213.44,85,204c0-8.44,13.17-13,31-13.85V172.71A62,62,0,0,1,60,111H184a62,62,0,0,1-54,61.49Zm-.77,10a7,7,0,0,1-12.48,0,76.55,76.55,0,0,0-15.9,2.3A27.46,27.46,0,0,0,96.53,204a27.46,27.46,0,0,0,4.32,1.55A85.88,85.88,0,0,0,122.5,208a85.88,85.88,0,0,0,21.65-2.45,27.46,27.46,0,0,0,4.32-1.55,27.46,27.46,0,0,0-4.32-1.55A75.09,75.09,0,0,0,129.23,200.2ZM66.61,126.56c8.86,21.82,25.3,34.83,49.14,38.92a1.5,1.5,0,0,0,.5-3c-22.82-3.91-38.39-16.24-46.86-37.08a1.5,1.5,0,0,0-2.78,1.12ZM109,.18l20.83,8.87L109,17.92ZM101.76,86A7.1,7.1,0,1,1,94.66,93,7.09,7.09,0,0,1,101.76,86Zm8.84-1.36a9.38,9.38,0,0,0,6.77-9,9,9,0,0,0-.23-2c4.69,5,7.49,10.58,4.49,18a20.56,20.56,0,0,1-12.88,11.54,12.23,12.23,0,0,0,1.85-18.49Zm-8-9A5.44,5.44,0,1,1,108,81,5.44,5.44,0,0,1,102.57,75.6ZM92.4,100.92C84,95.79,81.09,86,84.28,78.08c4.78-11.82,17.68-7.16,16.46-20a71.84,71.84,0,0,0,8.52,8.25,8.47,8.47,0,0,0-1.25-.08,9.34,9.34,0,0,0-7.7,14.65,12.23,12.23,0,0,0-7.91,20Zm63.94-18.63a3.5,3.5,0,0,1,2.4-6.58c7.36,2.69,11.77,6.7,12.67,12.18A3.5,3.5,0,0,1,164.5,89C164.09,86.48,161.56,84.19,156.34,82.29Zm34.8-18.19V46.9l7.12-7.12V57ZM201.83,38,209,45.12v1.17l-7.12,7.12ZM5.44,278.1c-7.62-6.8-6.49-21-1.19-28.1A15.57,15.57,0,0,0,7,252.58l-.13.19c-4,7.25-4.85,17.45,1,22.49,5.23,4.73,17.15,4.1,26-2.39,1.26-.94,2.58-1.95,4-3.15a1.89,1.89,0,0,1,2.65.19,1.91,1.91,0,0,1-.25,2.71c-1.45,1.2-2.78,2.27-4.22,3.27C27,282.64,12.57,284.4,5.44,278.1Zm8.5-23.6c-6.6-1-12.38-6.53-12.88-13.07-.51-5.78,2.41-11.81,7.74-14.26a1.94,1.94,0,0,1,2.54.94,1.83,1.83,0,0,1-.95,2.45,10.51,10.51,0,0,0-5.52,10.5c.5,5.84,5,8.79,9.9,9.8,9.14,1.76,25-2.2,28.88-10.68,1.2-3,.25-5.53-2.73-7.1-3.3-1.51-9-1.7-16.38,1.63-5.14,2.26-10.92,7-15.3,12.82a9.53,9.53,0,0,1-2.53-3c4.82-6,10.66-10.8,16.24-13.31,8.19-3.71,15.05-3.77,19.62-1.51s6.73,7.1,4.57,11.93C42.31,252.49,24,256.51,13.94,254.5Zm32.66,25c-2.59-1-4.47-3.78-4.6-7.68C41.81,264.73,48.09,256,52.24,255a33.13,33.13,0,0,0-1.88,6.34c-6.8,8.64-4.47,13.76-2.4,14.59,1.49.58,3.5.13,6.35-1.4a13,13,0,0,0,3.69,2.3C54.05,279.39,50,280.8,46.6,279.52Zm12.17-3.26c-5.9-2-8.21-7.84-7.7-13.36,1.22-8,7.89-19,16.55-19.87,5.77-.44,9,3.95,8.27,9-1,7.46-7.18,15.48-12.38,20.25A8.45,8.45,0,0,1,59,271.24c5.32-4.39,9.81-10.09,12.05-16,1.35-3.38,1.93-8.77-3-8.46-6.54.44-12.31,10.47-13.08,15.86-.52,3.76.32,7.09,3.2,9.16,4.81,3,10.33.94,14.5-2.26,2.24-1.82,4.36,1.25,2.31,3.07A17,17,0,0,1,58.77,276.26Zm-23.31-3a1.88,1.88,0,0,1,.26-2.71c2.32-2,4.77-4.19,7.28-6.57a17.39,17.39,0,0,0-1.8,7l-3,2.58A1.88,1.88,0,0,1,35.46,273.28Zm47.21,6.35c-4.61-1.41-5.25-6.27-4.29-10.23,1.66-6.46,5.69-12.16,9.59-17.08,5.24-6.65,15.15-18,20.84-22.83a1.92,1.92,0,0,1,2.94,2.36c-4.28,7.68-13.36,17.46-21.73,25.84,5.62-7.48,14.76-17.84,18.15-21.87a.45.45,0,0,0-.7-.58c-6.27,7-22.69,24.18-25.38,35.05-.58,2.3-.38,5.89,2.62,5.89,1.79.12,4.22-1.28,8.63-4.74,1-.7,1.79-1.4,2.75-2.24a1.9,1.9,0,0,1,2.49,2.88,30.89,30.89,0,0,1-2.87,2.43,40.15,40.15,0,0,1-6.59,4.35A8.11,8.11,0,0,1,82.67,279.63Zm-12.26-6.36a1.83,1.83,0,0,1,.31-2.6c3-2.48,6.17-5.51,9.28-8.67a30.2,30.2,0,0,0-3,8.11L73,273.58A1.84,1.84,0,0,1,70.41,273.27Zm34.19,6.25c-2.59-1-4.47-3.78-4.6-7.68-.19-7.11,6.09-15.82,10.24-16.84a33.13,33.13,0,0,0-1.88,6.34c-6.8,8.64-4.47,13.76-2.4,14.59,1.49.58,3.5.13,6.35-1.4a13,13,0,0,0,3.69,2.3C112.05,279.39,108,280.8,104.6,279.52Zm12.17-3.26c-5.9-2-8.21-7.84-7.7-13.36,1.22-8,7.89-19,16.55-19.87,5.77-.44,9,3.95,8.27,9-1,7.46-7.18,15.48-12.38,20.25a8.45,8.45,0,0,1-4.55-1.07c5.32-4.39,9.81-10.09,12-16,1.35-3.38,1.93-8.77-3-8.46-6.54.44-12.31,10.47-13.08,15.86-.52,3.76.32,7.09,3.2,9.16,4.81,3,10.33.94,14.5-2.26,2.24-1.82,4.36,1.25,2.31,3.07A17,17,0,0,1,116.77,276.26Zm-23.31-3a1.88,1.88,0,0,1,.26-2.71c2.32-2,4.77-4.19,7.28-6.57a17.39,17.39,0,0,0-1.8,7l-3,2.58A1.88,1.88,0,0,1,93.46,273.28Zm64.21-2.49c1.34-3,4-6.15,6.75-9.16,2.81-3.2,5.61-6,7.58-8.66a14.06,14.06,0,0,0,2-3.27c1-2.95-3.32-2.26-4.72-1.76-12.73,4-27.25,19.65-33.69,30.95a1.9,1.9,0,0,1-3.37-1.76c6.94-11.73,14.26-23.35,21.08-31.82,1.21-1.51,2.29-2.95,4.07-2a1.8,1.8,0,0,1,.83,1.82,10.76,10.76,0,0,1-2,3.2l-2.86,3.7a105.11,105.11,0,0,0-11.91,11.74.39.39,0,0,0,.06.63c.19.19.38.13.58-.06,6.87-8,16.3-16.95,26.11-20,5.28-1.7,11.65.56,9.42,6.65a16.43,16.43,0,0,1-2.48,4.21c-2.1,2.76-5,5.9-7.77,8.85-2.8,3.2-5.1,5.9-6.11,8.22-1.79,4.27,1.65,4.58,4.64,2.95a51.18,51.18,0,0,0,7.9-5.77,1.93,1.93,0,0,1,2.68.18,1.89,1.89,0,0,1-.19,2.7,54.28,54.28,0,0,1-8.54,6.22C160.6,282.53,154.42,277.7,157.67,270.79Zm-29.24,2.5a1.94,1.94,0,0,1,.25-2.68,173.17,173.17,0,0,0,13.16-12.49c.69-.77,2.7-3.25,5.16-6.12-4,5.86-7.93,12.05-11.46,17.66-1.51,1.34-3,2.67-4.47,3.88A1.81,1.81,0,0,1,128.43,273.29Zm51.65,1.11c-4.83-10.92,7.44-26.92,18.5-31.42,7-2.92,12.83,1,11.12,8.38-2.54,10.53-17.92,17-25.74,14.4a19.83,19.83,0,0,1,1.59-3.61c4.76,1.2,12.14-1.65,16.52-5.53,2.42-2,5.59-7,3.43-9.71-.82-1-3.68-1.14-7.18.45-5.78,2.79-12.71,10.6-14.74,16.63s-.07,12.5,7.12,12.19a20.23,20.23,0,0,0,10.74-4.26c1.2-.95,2.35-1.9,3.62-3a1.89,1.89,0,0,1,2.48,2.86,43.47,43.47,0,0,1-3.82,3.11A23.3,23.3,0,0,1,190.89,280C186.56,280.17,181.93,278.71,180.08,274.4Zm-8.65-1.14a1.91,1.91,0,0,1,.25-2.65A95.83,95.83,0,0,0,179,264a20.19,20.19,0,0,0-.94,6.05c-1.44,1.26-2.69,2.45-4,3.52A1.82,1.82,0,0,1,171.43,273.26Zm44.24,6.37c-4.61-1.41-5.25-6.27-4.29-10.23,1.66-6.46,5.69-12.16,9.59-17.08,5.24-6.65,15.15-18,20.84-22.83a1.92,1.92,0,0,1,2.94,2.36c-4.28,7.68-13.36,17.46-21.73,25.84,5.62-7.48,14.76-17.84,18.15-21.87a.45.45,0,0,0-.7-.58c-6.27,7-22.69,24.18-25.38,35.05-.58,2.3-.38,5.89,2.62,5.89,1.79.12,4.22-1.28,8.63-4.74,1-.7,1.79-1.4,2.75-2.24a1.9,1.9,0,0,1,2.49,2.88,30.89,30.89,0,0,1-2.87,2.43,40.15,40.15,0,0,1-6.59,4.35A8.11,8.11,0,0,1,215.67,279.63Zm-12.26-6.36a1.83,1.83,0,0,1,.31-2.6c3-2.48,6.17-5.51,9.28-8.67a30.2,30.2,0,0,0-3.05,8.11L206,273.58A1.84,1.84,0,0,1,203.41,273.27Z" transform="translate(0)"/></svg>