<?xml version="1.0" encoding="utf-8"?>
<!-- Generator: Adobe Illustrator 19.0.0, SVG Export Plug-In . SVG Version: 6.00 Build 0)  -->
<svg version="1.1" id="Layer_1" xmlns="http://www.w3.org/2000/svg" xmlns:xlink="http://www.w3.org/1999/xlink" x="0px" y="0px"
	 viewBox="0 0 1596.7 439.3" style="enable-background:new 0 0 1596.7 439.3;" xml:space="preserve">
<style type="text/css">
	.st0{clip-path:url(#SVGID_2_);fill:none;stroke:#000000;stroke-miterlimit:10;}
	.st1{clip-path:url(#SVGID_4_);fill-rule:evenodd;clip-rule:evenodd;fill:#FFFFFF;}
	.st2{clip-path:url(#SVGID_4_);fill:#FFFFFF;}
</style>
<g>
	<defs>
		<rect id="SVGID_1_" width="1596.7" height="439.3"/>
	</defs>
	<clipPath id="SVGID_2_">
		<use xlink:href="#SVGID_1_"  style="overflow:visible;"/>
	</clipPath>
	<rect x="0.5" y="0.5" class="st0" width="1595.7" height="438.3"/>
</g>
<g>
	<defs>
		<rect id="SVGID_3_" width="1596.7" height="439.3"/>
	</defs>
	<clipPath id="SVGID_4_">
		<use xlink:href="#SVGID_3_"  style="overflow:visible;"/>
	</clipPath>
	<path class="st1" d="M318.3,85.5c-12.8,0-25.4,2.8-34.3,6.4c-8.9-3.6-21.5-6.4-34.3-6.4c-56.4,0-107.4,53.4-107.4,126.6
		c0,79.8,65.2,141.6,141.7,141.6c76.5,0,141.7-61.7,141.7-141.6C425.7,138.9,374.7,85.5,318.3,85.5 M284,129
		c10.9,6.5,25.2,25.2,25.2,46.4c0,15.5-10.2,27.7-25.2,27.7c-15,0-25.2-12.2-25.2-27.7C258.7,154.2,273.1,135.5,284,129 M284,318.8
		c-58.5,0-106.9-47.1-106.9-107.4c0-55.1,39.8-92.7,71-91.3c-14.8,14.7-23.8,36.2-23.8,57c0,35.8,28.4,60.9,59.7,60.9
		c31.3,0,59.7-25.1,59.7-60.9c0-20.8-9-42.3-23.8-57c31.2-1.4,71,36.2,71,91.3C390.9,271.8,342.5,318.8,284,318.8"/>
	<polygon class="st2" points="629.8,146.6 629.8,175.8 674.3,175.8 674.3,285.3 705.8,285.3 705.8,175.8 750.2,175.8 750.2,146.6 	
		"/>
	<path class="st2" d="M1148.1,146.6h-79.3V176h77.2c11.3,0,15.7,5.2,15.7,18.4v4.9h-64c-24.3,0-36.4,12.2-36.4,39.7v6.5
		c0,28.3,12.5,39.7,37.8,39.7h93.8v-91.1C1193,159.2,1181.4,146.6,1148.1,146.6 M1102.4,255.6c-4.8,0-10.1-2.4-10.1-14.3
		c0-11.9,5.3-14,10.1-14h59.4v28.3H1102.4z"/>
	<path class="st2" d="M1409.6,146.6h-79.3V176h77.2c11.3,0,15.7,5.2,15.7,18.4c0,0.1,0,3.8,0,4.9h-64c-24.3,0-36.4,12.2-36.4,39.7
		v6.5c0,28.3,12.6,39.7,37.8,39.7h93.8v-91.1C1454.4,159.2,1442.9,146.6,1409.6,146.6 M1363.9,255.6c-4.8,0-10.1-2.4-10.1-14.3
		c0-11.9,5.3-14,10.1-14h59.4v28.3H1363.9z"/>
	<polygon class="st2" points="760.2,146.6 760.2,175.8 804.7,175.8 804.7,285.3 836.2,285.3 836.2,175.8 880.7,175.8 880.7,146.6 	
		"/>
	<polygon class="st2" points="1199.3,146.6 1199.3,175.8 1243.8,175.8 1243.8,285.3 1275.3,285.3 1275.3,175.8 1319.7,175.8 
		1319.7,146.6 	"/>
	<path class="st2" d="M1049.2,236.7v-41.5c0-36.3-14.1-48.6-45.9-48.6H919v138.6h85.8C1038.5,285.2,1049.2,268.5,1049.2,236.7
		 M1017,237.3c0,13.3-4.5,18.4-15.8,18.4h-50.7v-79.6h50.7c11.3,0,15.8,5.2,15.8,18.4V237.3z"/>
	<path class="st2" d="M585.4,252.2c-0.7-1.3-42.8-83.3-47.9-91.3c-5.9-9.3-13.2-15.8-27-15.8c-12.9,0-28.1,5.7-28.1,36.6v103.7h31.1
		v-86.5c0-6.2-0.4-15.4-0.5-17.2c-0.1-1.5,0-3,0.8-3.4c0.9-0.5,1.8,0.3,2.4,1.5c0.6,1.2,39.6,78.3,47.9,91.3
		c5.9,9.3,13.2,15.8,27,15.8c12.8,0,28.1-5.7,28.1-36.6V146.6h-31V233c0,6.2,0.4,15.4,0.5,17.3c0.1,1.5,0,3-0.8,3.4
		C586.9,254.2,586,253.4,585.4,252.2"/>
</g>
</svg>
