<svg width="212" height="201" viewBox="0 0 212 201" fill="none" xmlns="http://www.w3.org/2000/svg">
<path d="M200.667 0.5H126.982C118.867 0.5 111.53 3.66842 105.93 8.71053C100.33 3.66842 92.9928 0.5 84.877 0.5H11.1928C5.37177 0.5 0.666504 5.21579 0.666504 11.0263V168.921C0.666504 174.732 5.37177 179.447 11.1928 179.447H71.8033C77.3402 179.447 82.7718 181.689 86.6876 185.616L98.4876 197.416C98.5823 197.511 98.7086 197.542 98.8033 197.637C99.7086 198.479 100.719 199.216 101.898 199.7C101.909 199.7 101.909 199.7 101.919 199.7C103.193 200.226 104.551 200.5 105.93 200.5C107.309 200.5 108.666 200.226 109.94 199.7C109.951 199.7 109.951 199.7 109.961 199.7C111.14 199.216 112.151 198.468 113.056 197.637C113.151 197.542 113.277 197.511 113.372 197.416L125.172 185.616C129.088 181.689 134.519 179.447 140.056 179.447H200.667C206.488 179.447 211.193 174.732 211.193 168.921V11.0263C211.193 5.21579 206.488 0.5 200.667 0.5ZM190.14 158.395H140.056C131.645 158.395 123.372 160.984 116.456 165.647V32.0789C116.456 26.2789 121.172 21.5526 126.982 21.5526H190.14V158.395Z" fill="black"/>
</svg>
