<svg width="68" height="68" viewBox="0 0 68 68" fill="none" xmlns="http://www.w3.org/2000/svg">
<path d="M66.5 34C66.5 41.519 63.8929 48.8055 59.1228 54.6178C54.3528 60.4301 47.715 64.4086 40.3404 65.8755C32.9659 67.3424 25.3108 66.2069 18.6796 62.6624C12.0484 59.118 6.85133 53.3839 3.97392 46.4372C1.0965 39.4905 0.716775 31.761 2.89944 24.5658C5.0821 17.3705 9.69211 11.1546 15.944 6.97724C22.1958 2.79988 29.7027 0.919502 37.1856 1.6565C44.6684 2.39349 51.6642 5.70226 56.981 11.019" stroke="black" stroke-width="3"/>
<line x1="58.5" y1="12" x2="58.5" y2="2" stroke="black" stroke-width="3"/>
<line x1="50.2558" y1="16.6976" x2="58.9382" y2="11.7362" stroke="black" stroke-width="3"/>
<line x1="35.5" y1="12" x2="35.5" y2="34" stroke="#FFCC18" stroke-width="3"/>
<line x1="19.9393" y1="49.4957" x2="35.4957" y2="33.9393" stroke="#FFCC18" stroke-width="3"/>
</svg>
