<svg width="100" height="100" viewBox="0 0 100 100" fill="none" xmlns="http://www.w3.org/2000/svg">
<path d="M90 25H83.955C84.61 22.945 85 20.48 85 17.5C85 7.85 77.15 0 67.5 0C59.39 0 53.975 7.41 50.48 15.425C47.035 7.85 41.345 0 32.5 0C22.85 0 15 7.85 15 17.5C15 20.48 15.395 22.945 16.045 25H10C4.485 25 0 29.485 0 35V45C0 50.515 4.485 55 10 55V90C10 95.515 14.485 100 20 100H45H55H80C85.515 100 90 95.515 90 90V55C95.515 55 100 50.515 100 45V35C100 29.485 95.515 25 90 25ZM67.5 10C71.635 10 75 13.365 75 17.5C75 25 71.87 25 70 25H57.61C60.165 17.12 63.875 10 67.5 10ZM25 17.5C25 13.365 28.365 10 32.5 10C36.94 10 41.07 17.625 43.49 25H30C28.13 25 25 25 25 17.5ZM10 35H45V45H10V35ZM20 90V55H45V90H20ZM80 90H55V55H80V90ZM55 45V35.425C55.025 35.285 55.055 35.14 55.085 35H90L90.005 45H55Z" fill="black"/>
</svg>
