<svg xmlns="http://www.w3.org/2000/svg" fill="none" height="40" viewBox="0 0 40 40" width="40">
<path d="M20 40C31.05 40 40 31.05 40 20C40 8.95 31.05 0 20 0C8.95 0 0 8.95 0 20C0 31.05 8.95 40 20 40Z" fill="#7A1705"/>
<path d="M28.2224 13C28.9424 13 29.2824 13.9 28.7424 14.37L20.5224 21.56C20.3724 21.69 20.1924 21.75 20.0024 21.75C19.8124 21.75 19.6324 21.69 19.4824 21.56L11.2724 14.37C10.7224 13.9 11.0624 13 11.7824 13H28.2224ZM21.8424 23.07C21.3324 23.51 20.6824 23.76 20.0124 23.76C19.3424 23.76 18.6824 23.52 18.1824 23.07L11.0024 16.79V26.88C11.0024 27.43 11.4524 27.88 12.0024 27.88H28.0024C28.5524 27.88 29.0024 27.43 29.0024 26.88V16.79L21.8324 23.06L21.8424 23.07Z" fill="#F7F7F8"/>
</svg>
