<svg xmlns="http://www.w3.org/2000/svg" fill="none" height="40" viewBox="0 0 40 40" width="40">
<path d="M20 40C31.0457 40 40 31.0457 40 20C40 8.9543 31.0457 0 20 0C8.9543 0 0 8.9543 0 20C0 31.0457 8.9543 40 20 40Z" fill="#7A1705"/>
<path d="M26.8665 26.9734C26.8857 27.5472 27.3574 27.9998 27.9269 27.9998C27.9397 27.9998 27.9524 27.9998 27.9641 27.9987C28.5506 27.9796 29.0107 27.4887 28.9894 26.9012C28.6983 18.2811 21.7177 11.3005 13.0976 11.0104C12.5313 10.9679 12.0202 11.4492 12 12.0357C11.9798 12.6222 12.4388 13.1131 13.0253 13.1333C20.5319 13.3872 26.6126 19.4658 26.8665 26.9734Z" fill="#F7F7F8"/>
<path d="M22.6102 27.9998C22.0492 27.9998 21.5795 27.5599 21.5498 26.9925C21.3097 22.3632 17.6366 18.6902 13.0073 18.45C12.4208 18.4182 11.9714 17.9199 12.0011 17.3334C12.0319 16.7469 12.5292 16.2942 13.1178 16.3272C18.8383 16.6247 23.3752 21.1626 23.6737 26.8831C23.7035 27.4696 23.253 27.9679 22.6675 27.9998H22.6102Z" fill="#F7F7F8"/>
<path d="M14.6563 27.9998C16.1233 27.9998 17.3125 26.8106 17.3125 25.3436C17.3125 23.8765 16.1233 22.6873 14.6563 22.6873C13.1893 22.6873 12 23.8765 12 25.3436C12 26.8106 13.1893 27.9998 14.6563 27.9998Z" fill="#F7F7F8"/>
</svg>
