<svg xmlns="http://www.w3.org/2000/svg" fill="none" height="40" viewBox="0 0 40 40" width="40">
<path d="M20,40A20,20,0,1,0,0,20,20,20,0,0,0,20,40Z" fill="#7A1705"></path>
<path d="M29.58,15.17a2.49,2.49,0,0,0-1.77-1.78C26.25,13,20,13,20,13s-6.25,0-7.81.42a2.49,2.49,0,0,0-1.77,1.78A26.26,26.26,0,0,0,10,20a26.23,26.23,0,0,0,.42,4.84,2.47,2.47,0,0,0,1.77,1.75C13.75,27,20,27,20,27s6.25,0,7.81-.42a2.47,2.47,0,0,0,1.77-1.75A26.23,26.23,0,0,0,30,20,26.26,26.26,0,0,0,29.58,15.17ZM18,23V17l5.23,3Z" fill="#F7F7F8"></path>
</svg>
